<?xml version="1.0" standalone="no"?><svg xmlns="http://www.w3.org/2000/svg" viewBox="0 0 1440 320"><path fill="#0099ff" fill-opacity="1" d="M0,288L30,272C60,256,120,224,180,218.7C240,213,300,235,360,218.7C420,203,480,149,540,128C600,107,660,117,720,138.7C780,160,840,192,900,176C960,160,1020,96,1080,69.3C1140,43,1200,53,1260,74.7C1320,96,1380,128,1410,144L1440,160L1440,0L1410,0C1380,0,1320,0,1260,0C1200,0,1140,0,1080,0C1020,0,960,0,900,0C840,0,780,0,720,0C660,0,600,0,540,0C480,0,420,0,360,0C300,0,240,0,180,0C120,0,60,0,30,0L0,0Z"></path></svg>