<?xml version="1.0" standalone="no"?><svg xmlns="http://www.w3.org/2000/svg" viewBox="0 0 1440 320"><path fill="#0099ff" fill-opacity="1" d="M0,64L40,69.3C80,75,160,85,240,128C320,171,400,245,480,256C560,267,640,213,720,197.3C800,181,880,203,960,202.7C1040,203,1120,181,1200,160C1280,139,1360,117,1400,106.7L1440,96L1440,320L1400,320C1360,320,1280,320,1200,320C1120,320,1040,320,960,320C880,320,800,320,720,320C640,320,560,320,480,320C400,320,320,320,240,320C160,320,80,320,40,320L0,320Z"></path></svg>